<svg width="463" height="402" viewBox="0 0 463 402" fill="none" xmlns="http://www.w3.org/2000/svg">
<path d="M339.998 384.084L306.038 308.813H226.641L238.826 379.244C239.429 382.696 237.107 385.999 233.654 386.587C233.322 386.647 232.975 386.677 232.628 386.677H197.763C195.908 386.677 194.4 388.185 194.4 390.04V393.794C194.4 395.649 195.908 397.156 197.763 397.156H337.54C339.56 397.156 341.204 395.513 341.204 393.492V389.602C341.204 387.687 340.782 385.803 339.998 384.069V384.084ZM303.233 374.78H265.126C262.637 374.78 260.511 373.001 260.104 370.543L254.358 337.311C253.876 334.537 255.746 331.898 258.521 331.415C258.807 331.37 259.109 331.34 259.395 331.34H288.228C290.234 331.34 292.043 332.516 292.873 334.326L307.892 367.558C309.054 370.136 307.892 373.167 305.314 374.313C304.665 374.599 303.957 374.765 303.233 374.765V374.78Z" fill="#263238"/>
<path opacity="0.5" d="M339.998 384.084L306.038 308.813H226.641L238.826 379.244C239.429 382.696 237.107 385.999 233.654 386.587C233.322 386.647 232.975 386.677 232.628 386.677H197.763C195.908 386.677 194.4 388.185 194.4 390.04V393.794C194.4 395.649 195.908 397.156 197.763 397.156H337.54C339.56 397.156 341.204 395.513 341.204 393.492V389.602C341.204 387.687 340.782 385.803 339.998 384.069V384.084ZM303.233 374.78H265.126C262.637 374.78 260.511 373.001 260.104 370.543L254.358 337.311C253.876 334.537 255.746 331.898 258.521 331.415C258.807 331.37 259.109 331.34 259.395 331.34H288.228C290.234 331.34 292.043 332.516 292.873 334.326L307.892 367.558C309.054 370.136 307.892 373.167 305.314 374.313C304.665 374.599 303.957 374.765 303.233 374.765V374.78Z" fill="white"/>
<path opacity="0.2" d="M303.233 374.78H265.126C262.637 374.78 260.511 373.001 260.104 370.543L254.359 337.311C253.876 334.537 255.746 331.898 258.521 331.415C258.807 331.37 259.109 331.34 259.395 331.34H288.228C290.234 331.34 292.043 332.516 292.873 334.326L307.893 367.558C309.054 370.136 307.893 373.167 305.314 374.313C304.665 374.599 303.957 374.765 303.233 374.765V374.78Z" fill="white"/>
<path d="M263.859 331.28H259.38C256.56 331.28 254.268 333.557 254.268 336.361C254.268 336.663 254.298 336.949 254.343 337.236L260.104 370.468C260.526 372.911 262.637 374.705 265.126 374.705H269.619C267.131 374.705 265.005 372.926 264.598 370.468L258.852 337.236C258.37 334.461 260.24 331.823 263.014 331.34C263.301 331.295 263.587 331.265 263.874 331.265L263.859 331.28Z" fill="#263238"/>
<path d="M344.492 384.084L310.501 308.874H306.038L339.998 384.084C340.797 385.848 341.204 387.748 341.204 389.678V393.568C341.204 395.588 339.56 397.232 337.54 397.232H342.034C344.054 397.232 345.698 395.588 345.698 393.568V389.678C345.698 387.748 345.291 385.833 344.492 384.084Z" fill="#263238"/>
<path opacity="0.2" d="M306.008 308.813H226.611L229.733 326.786H314.136L306.008 308.813Z" fill="black"/>
<path d="M419.892 316.714H81.1948C75.0422 316.835 69.9602 311.934 69.8396 305.783C69.8396 305.285 69.8396 304.802 69.915 304.32L91.3135 59.6005C92.0072 52.6495 97.7979 47.3118 104.795 47.1911H443.492C449.644 47.0705 454.726 51.9709 454.847 58.1228C454.847 58.6204 454.847 59.1029 454.772 59.5854L433.358 304.32C432.664 311.256 426.874 316.594 419.892 316.714Z" fill="#263238"/>
<path opacity="0.3" d="M419.892 316.714H81.1948C75.0422 316.835 69.9602 311.934 69.8396 305.783C69.8396 305.285 69.8396 304.802 69.915 304.32L91.3135 59.6005C92.0072 52.6495 97.7979 47.3118 104.795 47.1911H443.492C449.644 47.0705 454.726 51.9709 454.847 58.1228C454.847 58.6204 454.847 59.1029 454.772 59.5854L433.358 304.32C432.664 311.256 426.874 316.594 419.892 316.714Z" fill="white"/>
<path d="M72.2072 277.873L69.9 304.32C69.2063 310.442 73.5946 315.96 79.7171 316.654C80.1996 316.714 80.6973 316.729 81.1798 316.729H419.892C426.874 316.609 432.664 311.271 433.358 304.32L435.68 277.873H72.2072Z" fill="#407BFF"/>
<path opacity="0.7" d="M72.2072 277.873L69.9 304.32C69.2063 310.442 73.5946 315.96 79.7171 316.654C80.1996 316.714 80.6973 316.729 81.1798 316.729H419.892C426.874 316.609 432.664 311.271 433.358 304.32L435.68 277.873H72.2072Z" fill="white"/>
<path d="M423.722 270.379H85.4627C82.13 270.439 79.3703 267.785 79.2949 264.453C79.2949 264.197 79.2949 263.925 79.3251 263.669L97.0139 61.4099C97.3909 57.6404 100.528 54.7604 104.313 54.7001H442.587C445.92 54.6398 448.68 57.2936 448.755 60.6259C448.755 60.8822 448.755 61.1536 448.725 61.4099L431.036 263.669C430.659 267.439 427.522 270.319 423.737 270.379H423.722Z" fill="#407BFF"/>
<path opacity="0.8" d="M423.722 270.379H85.4627C82.13 270.439 79.3703 267.785 79.2949 264.453C79.2949 264.197 79.2949 263.925 79.3251 263.669L97.0139 61.4099C97.3909 57.6404 100.528 54.7604 104.313 54.7001H442.587C445.92 54.6398 448.68 57.2936 448.755 60.6259C448.755 60.8822 448.755 61.1536 448.725 61.4099L431.036 263.669C430.659 267.439 427.522 270.319 423.737 270.379H423.722Z" fill="#407BFF"/>
<path opacity="0.8" d="M423.722 270.379H85.4627C82.13 270.439 79.3703 267.785 79.2949 264.453C79.2949 264.197 79.2949 263.925 79.3251 263.669L97.0139 61.4099C97.3909 57.6404 100.528 54.7604 104.313 54.7001H442.587C445.92 54.6398 448.68 57.2936 448.755 60.6259C448.755 60.8822 448.755 61.1536 448.725 61.4099L431.036 263.669C430.659 267.439 427.522 270.319 423.737 270.379H423.722Z" fill="white"/>
<g opacity="0.5">
<path d="M180.255 270.379H149.356L195.215 54.7001H226.099L180.255 270.379Z" fill="white"/>
<path d="M199.814 270.379H191.897L237.755 54.7001H245.657L199.814 270.379Z" fill="white"/>
<path d="M314.859 270.379H309.672L355.53 54.7001H360.703L314.859 270.379Z" fill="white"/>
<path d="M334.418 270.379H326.516L372.36 54.7001H380.261L334.418 270.379Z" fill="white"/>
</g>
<path d="M450.972 47.2213H443.477C449.63 47.1007 454.712 52.0011 454.832 58.153C454.832 58.6506 454.832 59.1331 454.757 59.6156L433.343 304.305C432.65 311.256 426.874 316.579 419.877 316.714H427.371C434.354 316.594 440.144 311.256 440.838 304.305L462.252 59.5855C462.93 53.4637 458.512 47.9602 452.404 47.2816C451.922 47.2364 451.454 47.2063 450.972 47.2213Z" fill="#263238"/>
<path opacity="0.6" d="M450.972 47.2213H443.477C449.63 47.1007 454.712 52.0011 454.832 58.153C454.832 58.6506 454.832 59.1331 454.757 59.6156L433.343 304.305C432.65 311.256 426.874 316.579 419.877 316.714H427.371C434.354 316.594 440.144 311.256 440.838 304.305L462.252 59.5855C462.93 53.4637 458.512 47.9602 452.404 47.2816C451.922 47.2364 451.454 47.2063 450.972 47.2213Z" fill="white"/>
<path d="M271.429 194.852C270.208 208.86 257.842 220.229 243.833 220.229C229.823 220.229 219.448 208.875 220.67 194.852C221.891 180.844 234.257 169.475 248.266 169.475L249.397 156.508C228.21 156.508 209.541 173.682 207.686 194.852C205.831 216.037 221.499 233.196 242.687 233.196C263.874 233.196 282.543 216.022 284.398 194.852H271.429Z" fill="#407BFF"/>
<path d="M288.952 189.228C290.807 168.043 275.139 150.884 253.951 150.884L252.82 163.851C266.83 163.851 277.205 175.205 275.983 189.228H288.952Z" fill="#407BFF"/>
<path opacity="0.3" d="M288.952 189.228C290.807 168.043 275.139 150.884 253.951 150.884L252.82 163.851C266.83 163.851 277.205 175.205 275.983 189.228H288.952Z" fill="black"/>
<path d="M257.178 194.867C256.621 201.245 250.996 206.417 244.617 206.417C238.238 206.417 233.518 201.245 234.076 194.867C234.634 188.489 240.259 183.317 246.638 183.317L247.15 177.407C237.514 177.407 229.009 185.217 228.165 194.852C227.32 204.487 234.453 212.298 244.089 212.298C253.725 212.298 262.23 204.487 263.075 194.852H257.163L257.178 194.867Z" fill="#407BFF"/>
<path opacity="0.3" d="M257.178 194.867C256.621 201.245 250.996 206.417 244.617 206.417C238.238 206.417 233.518 201.245 234.076 194.867C234.634 188.489 240.259 183.317 246.638 183.317L247.15 177.407C237.514 177.407 229.009 185.217 228.165 194.852C227.32 204.487 234.453 212.298 244.089 212.298C253.725 212.298 262.23 204.487 263.075 194.852H257.163L257.178 194.867Z" fill="black"/>
<path d="M265.156 192.304C266 182.669 258.867 174.858 249.231 174.858L248.719 180.769C255.097 180.769 259.817 185.941 259.259 192.319H265.171L265.156 192.304Z" fill="#407BFF"/>
<path d="M339.877 214.831H309.355C308.209 214.831 307.35 213.896 307.455 212.75C307.561 211.604 308.571 210.669 309.717 210.669H340.239C341.385 210.669 342.245 211.604 342.139 212.75C342.034 213.896 341.023 214.831 339.877 214.831Z" fill="#263238"/>
<path d="M331.493 223.003H308.647C307.501 223.003 306.641 222.068 306.747 220.922C306.852 219.776 307.862 218.842 309.009 218.842H331.855C333.001 218.842 333.86 219.776 333.755 220.922C333.649 222.068 332.639 223.003 331.493 223.003Z" fill="#263238"/>
<path d="M153.911 218.269H184.433C185.579 218.269 186.589 217.334 186.695 216.188C186.8 215.042 185.941 214.107 184.795 214.107H154.273C153.127 214.107 152.116 215.042 152.011 216.188C151.905 217.334 152.765 218.269 153.911 218.269Z" fill="#263238"/>
<path d="M160.848 226.456H183.694C184.84 226.456 185.85 225.521 185.956 224.375C186.061 223.229 185.202 222.294 184.056 222.294H161.209C160.063 222.294 159.053 223.229 158.947 224.375C158.842 225.521 159.701 226.456 160.848 226.456Z" fill="#263238"/>
<path d="M301.755 213.941H291.365L267.795 188.112H260.21L260.406 185.941H268.896L292.451 211.755H301.951L301.755 213.941Z" fill="#263238"/>
<path d="M190.404 218.48H200.794L224.364 192.651H231.95L231.769 190.464H223.264L199.709 216.293H190.208L190.404 218.48Z" fill="#263238"/>
<path opacity="0.1" d="M177.767 86.0326H122.589L123.509 75.5231H178.687L177.767 86.0326Z" fill="black"/>
<path opacity="0.1" d="M175.927 107.067H120.75L121.67 96.5571H176.847L175.927 107.067Z" fill="black"/>
<path opacity="0.1" d="M174.088 128.101H118.91L119.83 117.591H175.008L174.088 128.101Z" fill="black"/>
<path opacity="0.2" d="M176.847 96.5572H121.67L122.59 86.0326H177.767L176.847 96.5572Z" fill="white"/>
<path opacity="0.2" d="M175.008 117.591H119.83L120.75 107.067H175.927L175.008 117.591Z" fill="white"/>
<path d="M153.835 126.91C146.446 126.91 145.209 114.485 143.898 101.322C142.691 89.1839 141.439 76.6388 134.985 76.6388C129.677 76.6388 123.63 94.4613 121.745 101.322L120.674 101.111C120.674 101.111 122.439 94.7176 125.017 88.4753C128.561 79.8807 131.954 75.5231 135.091 75.5231C142.48 75.5231 143.717 87.9475 145.029 101.111C146.235 113.249 147.487 125.794 153.941 125.794C159.113 125.794 164.994 108.861 167.03 101.639C167.121 101.337 167.422 101.141 167.709 101.201C168.01 101.262 168.176 101.548 168.101 101.85C167.618 103.523 166.05 108.755 163.924 113.942C160.38 122.537 156.987 126.895 153.85 126.895L153.835 126.91Z" fill="#407BFF"/>
<path d="M128.38 121.18C122.77 121.18 120.855 103.478 120.659 101.458L121.775 101.246C122.303 106.479 124.52 120.064 128.486 120.064C132.452 120.064 134.759 111.967 136.9 104.142C139.268 95.4866 141.515 87.3142 146.491 87.3142C150.668 87.3142 151.347 94.0843 152.056 101.246C152.689 107.655 153.353 114.274 156.61 114.274C159.867 114.274 161.677 107.655 163.441 101.246C165.402 94.0843 167.271 87.3142 171.449 87.3142C173.288 87.3142 174.721 89.6513 175.867 94.4462C176.47 97.0095 176.817 99.603 176.953 100.704C176.983 101.005 176.757 101.307 176.455 101.352C176.154 101.412 175.882 101.216 175.852 100.915C175.294 95.8636 173.65 88.4149 171.358 88.4149C168.101 88.4149 166.291 95.0342 164.527 101.442C162.566 108.605 160.697 115.375 156.519 115.375C152.342 115.375 151.664 108.605 150.955 101.442C150.322 95.0342 149.658 88.4149 146.401 88.4149C142.344 88.4149 140.127 96.5119 137.986 104.338C135.619 112.992 133.372 121.165 128.395 121.165L128.38 121.18Z" fill="#407BFF"/>
<g opacity="0.5">
<path d="M128.38 121.18C122.77 121.18 120.855 103.478 120.659 101.458L121.775 101.246C122.303 106.479 124.52 120.064 128.486 120.064C132.452 120.064 134.759 111.967 136.9 104.142C139.268 95.4866 141.515 87.3142 146.491 87.3142C150.668 87.3142 151.347 94.0843 152.056 101.246C152.689 107.655 153.353 114.274 156.61 114.274C159.867 114.274 161.677 107.655 163.441 101.246C165.402 94.0843 167.271 87.3142 171.449 87.3142C173.288 87.3142 174.721 89.6513 175.867 94.4462C176.47 97.0095 176.817 99.603 176.953 100.704C176.983 101.005 176.757 101.307 176.455 101.352C176.154 101.412 175.882 101.216 175.852 100.915C175.294 95.8636 173.65 88.4149 171.358 88.4149C168.101 88.4149 166.291 95.0342 164.527 101.442C162.566 108.605 160.697 115.375 156.519 115.375C152.342 115.375 151.664 108.605 150.955 101.442C150.322 95.0342 149.658 88.4149 146.401 88.4149C142.344 88.4149 140.127 96.5119 137.986 104.338C135.619 112.992 133.372 121.165 128.395 121.165L128.38 121.18Z" fill="black"/>
</g>
<path d="M174.45 129.171H118.216L122.861 76.1262C122.891 75.7945 123.193 75.5231 123.524 75.5231C123.856 75.5231 124.113 75.7945 124.082 76.1262L119.543 127.95H174.555C174.887 127.95 175.143 128.221 175.113 128.553C175.083 128.885 174.781 129.156 174.45 129.156V129.171Z" fill="#263238"/>
<path d="M301.152 77.8149H212.18L210.642 95.3207L210.521 96.7683L209.119 112.827L208.998 114.274L207.46 131.78H313.94L315.478 114.274L315.598 112.827L317.001 96.7683L317.121 95.3207L318.66 77.8149H301.152ZM283.523 79.2625H299.583L298.181 95.3207H282.121L283.523 79.2625ZM296.643 112.811H280.583L281.985 96.7532H298.045L296.643 112.811ZM229.477 96.7532H245.537L244.134 112.811H228.074L229.477 96.7532ZM246.984 96.7532H263.045L261.642 112.811H245.582L246.984 96.7532ZM264.492 96.7532H280.552L279.15 112.811H263.09L264.492 96.7532ZM266.03 79.2474H282.091L280.688 95.3057H264.628L266.03 79.2474ZM248.523 79.2474H264.583L263.18 95.3057H247.12L248.523 79.2474ZM231.015 79.2474H247.075L245.672 95.3057H229.612L231.015 79.2474ZM213.507 79.2474H229.567L228.165 95.3057H212.104L213.507 79.2474ZM211.969 96.7532H228.029L226.626 112.811H210.566L211.969 96.7532ZM225.088 130.317H209.028L210.43 114.259H226.491L225.088 130.317ZM242.596 130.317H226.536L227.938 114.259H243.999L242.596 130.317ZM260.104 130.317H244.044L245.446 114.259H261.506L260.104 130.317ZM277.612 130.317H261.552L262.954 114.259H279.014L277.612 130.317ZM295.12 130.317H279.06L280.462 114.259H296.522L295.12 130.317ZM312.628 130.317H296.567L297.97 114.259H314.03L312.628 130.317ZM314.166 112.811H298.106L299.508 96.7532H315.568L314.166 112.811ZM299.644 95.3057L301.046 79.2474H317.106L315.704 95.3057H299.644Z" fill="#407BFF"/>
<path d="M229.612 131.056H218.227L220.036 110.429H231.407L229.612 131.056Z" fill="#407BFF"/>
<path d="M247.12 131.056H235.735L238.027 104.79H249.412L247.12 131.056Z" fill="#263238"/>
<path d="M265.472 131.056H254.102L256.394 104.79H267.78L265.472 131.056Z" fill="#407BFF"/>
<path d="M282.121 131.056H270.735L274.309 90.33H285.695L282.121 131.056Z" fill="#263238"/>
<path d="M299.629 131.056H288.243L292.073 87.2992H303.459L299.629 131.056Z" fill="#407BFF"/>
<path opacity="0.2" d="M229.612 131.056H218.227L220.036 110.429H231.407L229.612 131.056Z" fill="black"/>
<path opacity="0.2" d="M265.472 131.056H254.102L256.394 104.79H267.78L265.472 131.056Z" fill="black"/>
<path opacity="0.2" d="M299.629 131.056H288.243L292.073 87.2992H303.459L299.629 131.056Z" fill="black"/>
<path d="M386.972 270.379C392.446 227.813 397.86 182.141 397.86 182.141L354.128 181.87C354.128 181.87 350.086 229.517 346.904 270.394H386.987L386.972 270.379Z" fill="#263238"/>
<path opacity="0.6" d="M388.51 270.379C390.44 254.547 392.371 238.292 394.029 224.089C394.421 218.163 394.783 212.403 395.13 206.945C391.813 199.24 385.268 194.988 380.714 212.78C376.597 228.793 375.632 249.149 380.156 270.379H388.525H388.51Z" fill="black"/>
<path d="M423.466 270.379C421.46 228.552 419.304 181.236 419.304 181.236H377.064C377.064 181.236 380.729 230.06 384.665 270.379H423.466Z" fill="#263238"/>
<path d="M349.996 81.6901C347.01 88.5959 343.617 95.8033 340.028 102.483C338.249 105.845 336.333 109.102 334.343 112.118C332.382 115.118 330.166 117.938 328.19 119.717C327.708 120.155 327.255 120.516 326.908 120.743C326.562 120.984 326.32 121.074 326.335 121.105C326.366 121.12 326.562 121.21 326.396 121.225C326.275 121.24 325.958 121.225 325.506 121.059C324.616 120.743 323.365 119.974 322.143 118.994C320.922 117.998 319.625 116.837 318.403 115.541C313.457 110.324 308.782 103.81 304.469 97.4317L296.718 101.035C299.448 109.117 302.841 116.656 307.953 124.03C309.25 125.854 310.667 127.679 312.371 129.443C314.09 131.192 316.036 132.956 318.735 134.464C320.077 135.218 321.661 135.896 323.515 136.288C325.325 136.71 327.572 136.786 329.563 136.379C333.529 135.549 336.107 133.8 338.279 132.187C342.531 128.84 345.336 125.281 348.036 121.723C350.659 118.149 352.921 114.515 355.063 110.851C357.159 107.172 359.134 103.463 360.914 99.6935C362.708 95.8937 364.412 92.2147 365.996 88.1435L349.996 81.7051V81.6901Z" fill="#CE7A63"/>
<path d="M329.743 111.032L349.091 125.462C349.091 125.462 349.83 124.648 351.067 123.231C351.956 122.19 353.117 120.803 354.444 119.19C361.954 110.037 372.948 93.3304 373.038 85.143C373.174 72.9447 360.507 71.1504 346.286 83.6201C340.149 89.003 336.952 97.9444 333.83 103.478C332.805 105.303 331.93 106.901 331.267 108.137C330.301 109.932 329.759 111.017 329.759 111.017L329.743 111.032Z" fill="#407BFF"/>
<path opacity="0.3" d="M373.159 86.5453C368.785 83.6503 365.588 91.1291 356.963 97.4468C353.117 100.266 344.673 118.632 345.366 122.673L349.091 125.447C349.091 125.447 373.249 98.6983 373.159 86.5302V86.5453Z" fill="black"/>
<path d="M298.829 103.915L287.776 95.1701L299.176 87.842C299.176 87.842 308.239 97.7032 305.766 101.096L298.829 103.93V103.915Z" fill="#CE7A63"/>
<path d="M329.743 109.147L350.886 124.949L348.247 127.709L328.13 112.857L329.743 109.147Z" fill="#407BFF"/>
<path opacity="0.2" d="M329.743 109.147L350.886 124.949L348.247 127.709L328.13 112.857L329.743 109.147Z" fill="black"/>
<path d="M353.902 181.87H419.364C419.831 176.019 418.474 157.006 419.484 132.79C420.163 116.536 421.912 97.9293 425.984 79.4133C426.286 78.0864 426.572 76.7897 426.889 75.4628C426.889 75.4628 423.571 74.7843 418.821 74.0907C414.87 73.5177 409.924 72.9146 405.068 72.6884C396.714 72.2964 384.619 72.025 377.245 72.6884C372.963 73.0804 368.785 73.7891 365.453 74.4375C361.2 75.2969 358.682 76.0358 358.682 76.0358C358.682 76.0358 342.546 113.053 353.902 181.87Z" fill="#407BFF"/>
<path d="M287.082 82.5646L296.326 79.5188L299.161 87.8269L287.761 95.1549L287.082 82.5646Z" fill="#CE7A63"/>
<path d="M434.278 90.6918C436.118 94.4764 437.611 98.0801 439.119 101.835C440.627 105.559 441.954 109.374 443.19 113.249C444.397 117.139 445.482 121.12 446.342 125.281C447.141 129.473 447.82 133.755 447.654 138.746C447.503 141.264 447.232 143.978 445.98 147.13C445.332 148.698 444.397 150.401 442.964 151.939C441.562 153.493 439.631 154.759 437.716 155.483C433.78 156.9 430.478 156.478 427.869 155.935C425.215 155.347 423.013 154.427 420.962 153.417C416.891 151.412 413.467 148.984 410.24 146.421C408.627 145.139 407.089 143.797 405.611 142.395C404.118 140.993 402.7 139.621 401.253 138.037L406.727 131.493C413.075 135.127 419.937 138.836 426.15 140.812C427.688 141.279 429.166 141.581 430.327 141.671C431.503 141.777 432.227 141.445 431.91 141.415C431.775 141.4 431.488 141.551 431.352 141.641C431.202 141.732 431.232 141.732 431.277 141.49C431.398 141.023 431.548 139.832 431.488 138.49C431.428 135.73 430.809 132.323 429.935 128.96C429.09 125.568 428.02 122.1 426.813 118.647C424.446 111.756 421.581 104.669 418.67 98.0499L434.263 90.7068L434.278 90.6918Z" fill="#CE7A63"/>
<path d="M409.441 133.665L399.096 124.075L393.592 136.454C393.592 136.454 404.721 143.903 407.707 140.947L409.441 133.665Z" fill="#CE7A63"/>
<path d="M386.55 125.311L384.951 134.916L393.592 136.439L399.111 124.06L386.55 125.311Z" fill="#CE7A63"/>
<path opacity="0.3" d="M419.469 132.805C420.148 116.551 421.897 97.9444 425.969 79.4284C421.596 79.0514 414.116 79.4736 412.879 86.5453C411.537 94.1447 413.226 111.997 419.469 132.82V132.805Z" fill="black"/>
<path d="M411.266 96.4819C413.664 104.519 417.72 114.169 420.721 120.924C421.505 122.718 422.244 124.316 422.832 125.598C423.873 127.86 424.536 129.232 424.536 129.232L449.041 116.747C449.041 116.747 448.77 115.722 448.287 114.018C447.91 112.721 447.428 111.017 446.825 109.057C443.22 97.5072 435.741 76.8651 427.763 75.4176C415.835 73.2614 406.893 81.9314 411.266 96.4819Z" fill="#407BFF"/>
<path d="M389.038 81.8861C405.204 81.4338 407.631 73.5479 407.722 73.2011L407.828 72.8543C406.908 72.7939 405.988 72.7336 405.068 72.6884C396.714 72.2964 384.619 72.025 377.245 72.6884C376.717 72.7336 376.205 72.7939 375.677 72.8543C374.516 74.0454 373.4 75.7191 373.867 77.5436C374.576 80.3029 378.361 81.2227 381.679 81.5996L389.038 81.8861Z" fill="white"/>
<path d="M448.468 112.344L421.686 126.035L424.732 129.744L449.614 116.807L448.468 112.344Z" fill="#407BFF"/>
<path opacity="0.2" d="M448.468 112.344L421.686 126.035L424.732 129.744L449.614 116.807L448.468 112.344Z" fill="black"/>
<path d="M393.034 90.2395L385.132 83.0623L375.406 89.7721C375.406 89.7721 365.332 80.2276 372.812 73.2313C374.259 73.0353 375.737 72.8392 377.245 72.7035C384.604 72.0401 396.714 72.3115 405.068 72.7035C406.968 72.794 408.883 72.9448 410.753 73.1257C410.195 75.8247 407.33 84.7058 393.049 90.2395H393.034Z" fill="#407BFF"/>
<path opacity="0.2" d="M393.034 90.2395L385.132 83.0623L375.406 89.7721C375.406 89.7721 365.332 80.2276 372.812 73.2313C374.259 73.0353 375.737 72.8392 377.245 72.7035C384.604 72.0401 396.714 72.3115 405.068 72.7035C406.968 72.794 408.883 72.9448 410.753 73.1257C410.195 75.8247 407.33 84.7058 393.049 90.2395H393.034Z" fill="black"/>
<path d="M388.51 80.2427C404.088 79.9712 406.139 72.7488 406.139 72.7488C400.076 66.7778 402.414 50.4481 404.465 41.4766L397.015 47.6436L386.882 56.0572C387.183 57.4293 387.409 58.8165 387.53 60.1585C388.073 65.662 386.655 70.6529 378.572 72.5678C378.572 72.5678 368.982 78.9158 383.217 80.0768L388.51 80.2276V80.2427Z" fill="#CE7A63"/>
<path opacity="0.2" d="M386.882 56.0874C387.183 57.4595 387.409 58.8467 387.53 60.1886C391.315 59.4347 396.367 55.3938 396.895 51.5337C397.091 50.0862 397.121 48.6839 397.03 47.6737L386.897 56.0874H386.882Z" fill="black"/>
<path d="M407.541 28.5997C404.947 40.4964 404.043 47.5831 397.015 53.0113C386.444 61.1837 372.42 53.916 371.394 41.6122C370.475 30.5297 374.863 12.9334 387.379 9.57096C399.715 6.25376 410.12 16.703 407.541 28.6147V28.5997Z" fill="#CE7A63"/>
<path d="M388.767 29.7759C388.616 30.7559 387.967 31.4797 387.334 31.4043C386.701 31.3289 386.293 30.4695 386.444 29.5044C386.595 28.5244 387.243 27.8006 387.877 27.876C388.51 27.9514 388.917 28.8109 388.767 29.7759Z" fill="#263238"/>
<path d="M377.683 28.464C377.532 29.4441 376.883 30.1678 376.25 30.0924C375.602 30.017 375.21 29.1576 375.36 28.1926C375.511 27.2125 376.16 26.4887 376.793 26.5641C377.426 26.6395 377.833 27.499 377.683 28.464Z" fill="#263238"/>
<path d="M381.121 29.3687C381.121 29.3687 378.029 34.7365 375.149 37.1641C376.642 38.9886 379.703 38.5965 379.703 38.5965L381.121 29.3687Z" fill="#BA4D3C"/>
<path d="M392.732 26.6245C392.823 26.6245 392.929 26.5943 393.019 26.5491C393.306 26.3983 393.396 26.0364 393.245 25.765C391.707 22.9906 389.023 22.8399 388.902 22.8248C388.601 22.7795 388.314 23.0509 388.299 23.3676C388.284 23.6842 388.525 23.9556 388.842 23.9707C388.947 23.9707 391.013 24.1366 392.22 26.3078C392.325 26.5039 392.521 26.6094 392.732 26.6094V26.6245Z" fill="#263238"/>
<path d="M373.506 24.1064C373.687 24.1064 373.868 24.0159 373.988 23.8501C375.466 21.6788 377.638 21.6336 377.653 21.6336C377.969 21.6336 378.226 21.3772 378.226 21.0455C378.226 20.7289 377.969 20.4725 377.653 20.4725C377.532 20.4725 374.863 20.5178 373.038 23.2017C372.857 23.4731 372.933 23.8199 373.189 24.0008C373.294 24.0762 373.4 24.1064 373.521 24.1064H373.506Z" fill="#263238"/>
<path d="M376.386 41.8233C376.386 41.8233 380.005 40.8884 390.259 40.6019C389.143 43.708 386.972 46.2864 381.724 46.3769C376.476 46.4673 376.386 41.8082 376.386 41.8082V41.8233Z" fill="#263238"/>
<path d="M384.092 43.9041C381.558 43.9493 379.749 44.5826 378.422 45.5476C379.176 46.0753 380.261 46.407 381.724 46.392C384.258 46.3467 386.067 45.7285 387.379 44.7484C386.625 44.2207 385.554 43.889 384.092 43.9041Z" fill="#A02724"/>
<path d="M376.853 41.7177C377.155 42.366 377.472 43.0144 378.497 43.1953C380.638 43.2858 386.082 42.5319 387.545 42.1851C388.48 42.0041 389.279 41.6573 389.822 40.6169C381.935 40.8431 378.09 41.4764 376.853 41.7177Z" fill="white"/>
<path d="M400.74 19.7036C398.538 17.4268 397.905 14.6976 388.797 15.4968C379.688 16.2959 370.082 23.3223 370.278 15.4364C370.324 13.6271 371.862 15.738 374.878 11.8177C374.878 11.8177 366.644 15.542 369.208 10.2948C371.289 6.07286 373.611 12.5565 384.152 4.42934C394.693 -3.69782 408.566 3.63019 412.563 14.5619C412.563 14.5619 419.771 16.7332 418.7 24.7095C417.765 31.7058 407.948 36.8626 406.938 45.3667C406.787 46.588 408.31 48.5482 407.089 49.2267C406.395 49.6188 404.691 47.0856 404.691 47.0856C404.691 47.0856 404.404 47.5832 404.193 48.5633C403.952 49.6941 406.41 52.6193 404.299 53.8859C403.092 54.6096 402.565 52.4534 401.841 48.8045C401.569 47.4626 401.449 45.8341 401.584 43.8589C402.097 36.5007 398.568 39.8782 398.704 35.204C398.795 31.9622 401.403 26.534 402.972 23.5184C403.484 22.5232 403.168 21.2717 402.172 20.744C401.72 20.5027 401.222 20.1559 400.74 19.6583V19.7036Z" fill="#263238"/>
<path d="M410.286 41.0242C408.159 43.5875 405.234 45.0953 402.731 45.5175C398.976 46.1507 398.131 42.6828 400.046 39.3203C401.765 36.3047 405.792 32.324 409.14 33.2136C412.442 34.0882 412.729 38.099 410.301 41.0242H410.286Z" fill="#CE7A63"/>
<path d="M126.435 270.032H82.9592C81.8282 270.032 80.9083 269.112 80.9083 267.981V266.353H126.435V270.032Z" fill="#263238"/>
<path opacity="0.2" d="M126.435 270.032H82.9592C81.8282 270.032 80.9083 269.112 80.9083 267.981V266.353H126.435V270.032Z" fill="white"/>
<path d="M153.564 270.032H118.065C116.934 270.032 116.014 269.112 116.014 267.981V266.353H153.579V270.032H153.564Z" fill="#263238"/>
<path opacity="0.5" d="M153.564 270.032H118.065C116.934 270.032 116.014 269.112 116.014 267.981V266.353H153.579V270.032H153.564Z" fill="white"/>
<path d="M145.239 268.856H148.919V267.544H145.239V268.856Z" fill="#263238"/>
<path d="M139.524 268.856H143.204V267.544H139.524V268.856Z" fill="#263238"/>
<path d="M151.075 266.368H153.518L156.052 233.121H153.594L151.075 266.368Z" fill="#263238"/>
<path opacity="0.3" d="M151.075 266.368H153.518L156.052 233.121H153.594L151.075 266.368Z" fill="white"/>
<path d="M151.965 266.368H108.972L111.506 233.121H154.499L151.965 266.368Z" fill="#407BFF"/>
<path opacity="0.4" d="M151.965 266.368H108.972L111.506 233.121H154.499L151.965 266.368Z" fill="white"/>
<path d="M79.1589 197.476C77.8318 202.195 77.5 207.262 84.286 209.101C84.286 209.101 90.6196 218.027 83.0193 224.013C78.2088 217.681 72.1316 212.403 65.1797 208.528C69.583 204.578 68.7235 193.299 67.7131 187.132L79.1589 197.461V197.476Z" fill="#CE7A63"/>
<path d="M87.5887 172.959C88.1014 172.838 88.7347 173.32 88.9911 174.105C89.2475 174.889 89.0363 175.718 88.5085 175.839C87.9958 175.959 87.3625 175.492 87.1061 174.693C86.8347 173.909 87.0609 173.079 87.5887 172.959Z" fill="#2E353A"/>
<path d="M89.0966 171.903L87.3774 173.064C88.5989 173.712 89.0966 171.903 89.0966 171.903Z" fill="#2E353A"/>
<path d="M89.4282 181.493C90.4838 181.433 91.4641 180.905 92.0823 180.045C90.4085 178.869 88.9155 177.482 87.6187 175.884L89.4132 181.478L89.4282 181.493Z" fill="#BA4D3C"/>
<path d="M85.7036 167.757C84.6631 168.45 84.0448 169.626 84.0298 170.878C84.0298 171.149 83.8337 171.36 83.5623 171.375C83.5623 171.375 83.5472 171.375 83.5321 171.375C83.2757 171.375 83.0646 171.179 83.0496 170.923C83.0496 169.34 83.8186 167.862 85.1155 166.957C85.3266 166.807 85.6433 166.837 85.7941 167.063C85.8846 167.214 85.8846 167.395 85.7941 167.545C85.7941 167.621 85.7489 167.696 85.6886 167.757H85.7036Z" fill="#2E353A"/>
<path d="M58.0318 173.456C58.6953 165.796 65.4361 160.112 73.1118 160.775C83.9091 161.59 89.8958 175.627 90.6197 185.051C91.434 195.531 80.5161 202.21 70.699 197.069C64.109 193.646 62.8423 189.529 59.0422 179.985C58.1977 177.919 57.8508 175.688 58.0318 173.471V173.456Z" fill="#CE7A63"/>
<path opacity="0.21" d="M52.7688 185.85C38.6238 167.983 55.9809 162.841 55.9809 162.841C61.4248 155.287 70.4124 153.764 78.6461 156.915C86.8798 160.067 84.4368 165.585 81.4359 166.128C87.0457 173.547 83.8336 177.241 81.9788 177.768C84.8741 196.435 66.9139 203.718 52.7688 185.85Z" fill="#263238"/>
<path d="M65.2099 264.755C62.4352 264.393 59.6906 263.82 56.9913 263.051C56.5841 262.93 56.2071 262.764 55.8301 262.599L55.6944 260.623C55.3777 254.713 55.2571 248.666 55.1214 242.635L54.8198 224.496L44.3844 224.466C44.3543 230.618 44.5051 236.739 44.7765 242.876C45.0479 249.013 45.4099 255.15 46.1035 261.362L46.4655 263.699L46.6464 264.875C46.6766 265.237 46.7369 265.599 46.8123 265.961C46.9329 266.308 47.0687 266.639 47.2195 266.971C47.506 267.514 47.8528 268.027 48.2751 268.479C48.8481 269.097 49.5267 269.61 50.2505 270.017C50.7783 270.319 51.3212 270.575 51.8792 270.786C52.7991 271.133 53.734 271.419 54.6841 271.63C57.9263 272.279 61.2137 272.641 64.5162 272.686C70.7442 272.821 76.9874 272.52 83.1702 271.781L83.0495 266.67C77.0628 266.112 71.0157 265.599 65.1948 264.724L65.2099 264.755Z" fill="#CE7A63"/>
<path d="M63.7471 221.164C63.7471 227.481 59.947 239.303 59.947 239.303L44.2789 229.668C43.5852 221.571 45.2591 211.182 53.0253 208.649C58.2882 206.945 63.6868 214.454 63.7622 221.179L63.7471 221.164Z" fill="#263238"/>
<path opacity="0.6" d="M52.4824 216.61L48.8782 220.168L48.1846 232.065L59.9319 239.288C59.9319 239.288 63.732 227.466 63.732 221.149C63.732 219.55 63.3852 217.907 62.8423 216.339L57.4286 214.695L52.4673 216.595L52.4824 216.61Z" fill="black"/>
<path d="M97.4511 269.55C97.8884 268.524 97.4058 267.348 96.3955 266.911L91.9619 265.026C91.0119 264.634 89.9412 264.559 88.9459 264.815L79.2646 267.424L78.0732 270.696C79.5812 274.45 85.9902 273.741 85.9902 273.741L90.6047 275.144C91.796 275.506 93.0778 275.113 93.862 274.148L97.2098 270.002C97.3153 269.866 97.4058 269.715 97.4812 269.55H97.4511Z" fill="#CE7A63"/>
<path d="M90.3936 208.483C88.3728 208.136 86.2767 207.819 84.2258 207.578C77.9073 206.945 71.5586 206.749 65.225 207.005C62.1035 207.065 59.0423 207.292 56.358 207.578C56.2826 207.578 56.2072 207.593 56.1469 207.608C51.2911 208.257 47.8831 212.705 48.5164 217.56C52.3166 244.671 53.9754 256.205 52.8745 271.691L94.8271 272.957C99.713 247.686 101.704 232.623 102.352 223.757C102.91 216.339 97.7224 209.719 90.3936 208.483Z" fill="#263238"/>
<path d="M139.087 364.015L148.994 363.08L155.675 387.461L145.767 388.411L139.087 364.015Z" fill="#CE7A63"/>
<path d="M67.0949 271.661C51.1403 292.71 52.407 310.758 68.8743 310.758C83.5472 310.758 101.854 311.618 121.715 310.351C126.088 342.302 142.736 379.53 142.736 379.53L153.714 378.505C153.714 378.505 143.701 331.793 142.917 299.118C142.435 279.366 86.6989 281.054 86.6989 281.054C86.6989 281.054 76.8667 271.691 67.0949 271.646V271.661Z" fill="#263238"/>
<path opacity="0.3" d="M67.0949 271.661C51.1403 292.71 52.407 310.758 68.8743 310.758C83.5472 310.758 101.854 311.618 121.715 310.351C126.088 342.302 142.736 379.53 142.736 379.53L153.714 378.505C153.714 378.505 143.701 331.793 142.917 299.118C142.435 279.366 86.6989 281.054 86.6989 281.054C86.6989 281.054 76.8667 271.691 67.0949 271.646V271.661Z" fill="white"/>
<path opacity="0.2" d="M144.184 318.222C143.535 311.633 143.083 305.149 142.932 299.133C142.45 279.381 86.7139 281.069 86.7139 281.069C86.7139 281.069 85.221 279.652 82.8383 277.933C80.6819 278.205 79.4453 278.385 79.4453 278.385C79.4453 278.385 71.0307 278.25 62.6462 278.189C51.5926 296.313 54.1562 310.758 68.8893 310.758C77.6056 310.758 87.6338 311.06 98.4914 311.03C113.255 307.004 128.501 302.028 135.422 299.781C137.624 306.144 140.7 312.357 144.184 318.222Z" fill="black"/>
<path d="M53.0103 268.856L95.5057 270.123C95.9279 270.123 96.1994 270.379 96.1994 270.635L95.7168 274.435C95.6716 274.661 95.3549 274.827 94.9779 274.827L51.8039 273.56C51.3062 273.56 50.9745 273.244 51.1253 272.957L52.3166 269.233C52.4523 268.992 52.7237 268.841 52.9952 268.871L53.0103 268.856Z" fill="#263238"/>
<path d="M123.132 256.16C118.548 256.748 113.903 257.336 109.394 257.713C107.223 257.909 105.051 257.985 102.88 257.939C102.292 257.939 101.703 257.864 101.115 257.758C100.738 256.07 100.452 254.366 100.301 252.647C100.135 250.506 100.09 248.365 100.15 246.224C100.226 244.022 100.392 241.836 100.618 239.649C100.723 238.549 100.859 237.418 101.025 236.362C101.176 235.307 101.357 234.131 101.523 233.241L91.3586 231.085C91.057 232.457 90.8308 233.633 90.6649 234.885C90.484 236.136 90.3483 237.312 90.2125 238.624C89.9713 241.127 89.8506 243.645 89.8808 246.148C89.8506 251.395 90.6951 256.612 92.3841 261.573L92.5348 262.056L92.6706 262.372L92.8515 262.795C92.9873 263.066 93.1381 263.307 93.3039 263.548C93.8619 264.348 94.5857 265.011 95.4302 265.494C96.4255 266.051 97.5113 266.413 98.6423 266.564C100.135 266.76 101.628 266.805 103.121 266.67C105.654 266.443 108.158 266.036 110.631 265.463C115.351 264.363 119.98 262.915 124.474 261.121L123.132 256.145V256.16Z" fill="#CE7A63"/>
<path d="M84.859 219.867C81.5264 224.511 88.1766 237.177 88.1766 237.177L101.296 236.347C101.296 236.347 104.719 220.063 98.6874 213.006C95.4301 209.222 88.3425 215.027 84.859 219.867Z" fill="#263238"/>
<path d="M133.899 247.897C135.091 248.033 135.95 249.104 135.815 250.295L135.287 255.994C135.211 256.869 134.608 257.623 133.764 257.879L128.576 259.432C128.576 259.432 119 265.463 115.909 262.855L119.483 257.909L126.013 250.461C126.751 249.616 127.747 249.028 128.848 248.802L133.221 247.927C133.447 247.882 133.673 247.867 133.914 247.897H133.899Z" fill="#CE7A63"/>
<path d="M156.504 386.858C158.857 389.24 162.868 392.648 166.789 393.613C169.292 394.231 170.83 398.272 166.065 397.805C161.3 397.322 156.233 396.357 153.413 395.995C148.828 395.392 147.26 395.649 143.626 395.287C142.721 395.151 142.088 394.322 142.223 393.417L143.807 385.245C143.882 384.883 144.214 384.642 144.576 384.702L154.996 386.074C155.584 386.164 156.112 386.436 156.519 386.873L156.504 386.858Z" fill="#263238"/>
<path d="M81.3304 166.143C81.3304 166.143 86.5029 171.994 83.0646 178.296C83.0646 178.296 79.9129 182.247 81.3304 190.54C82.7479 198.833 89.0966 205.512 74.8309 205.437C61.4097 205.362 44.5654 208.076 46.4504 194.973C46.4504 194.973 40.3279 189.228 47.2195 183.091C47.2195 183.091 42.0169 175.869 48.4409 170.169C48.4409 170.169 45.1233 158.393 56.6143 158.981C56.6143 158.981 59.1779 147.265 71.4228 153.839C71.4228 153.839 76.6104 145.577 84.4671 153.87C84.4671 153.87 97.2549 154.91 88.222 162.343C88.222 162.343 88.6744 168.375 81.3153 166.113L81.3304 166.143Z" fill="#263238"/>
<path d="M91.072 178.296C90.7854 178.296 90.4989 178.191 90.2426 177.98C89.0965 177.015 88.629 173.908 88.4933 172.612L82.4161 175.446L82.0994 174.768L90.4688 170.848C90.9061 170.652 91.3886 170.652 91.8109 170.878C92.2331 171.104 92.5046 171.496 92.58 171.948C92.9117 173.954 93.1228 176.562 92.2331 177.693C91.9617 178.04 91.5998 178.251 91.1775 178.281C91.1474 178.281 91.1021 178.281 91.072 178.281V178.296ZM89.2171 172.265C89.3528 173.652 89.8203 176.638 90.7251 177.407C90.891 177.542 91.0267 177.557 91.1021 177.542C91.3283 177.527 91.4942 177.422 91.6299 177.241C92.1728 176.532 92.2482 174.647 91.826 172.069C91.7958 171.843 91.645 171.647 91.449 171.541C91.2378 171.436 90.9966 171.421 90.7855 171.541L89.2171 172.28V172.265Z" fill="#407BFF"/>
<path d="M77.4097 178.326C77.1835 176.351 78.5859 174.557 80.5765 174.316C83.306 174.044 85.4322 177.286 86.0204 179.623C86.699 182.201 85.2513 184.584 82.567 183.739C80.5463 183.076 78.8574 181.644 77.8922 179.744C77.6359 179.306 77.47 178.824 77.4097 178.326Z" fill="#CE7A63"/>
<path d="M169.714 342.091L178.114 334.13L189.349 351.198L182.638 357.018L169.714 342.091Z" fill="#CE7A63"/>
<path d="M56.8404 272.007C54.7895 271.992 52.995 273.364 52.4974 275.355C46.8273 297.474 53.2363 310.819 68.8893 310.819C83.5622 310.819 123.6 297.716 136.176 293.645C146.717 324.088 177.118 351.334 177.118 351.334L185.096 344.006C185.096 344.006 167.392 309.884 155.147 279.592C148.12 262.176 80.1842 272.234 80.1842 272.234C80.1842 272.234 66.6876 272.007 56.8253 272.007H56.8404Z" fill="#263238"/>
<path opacity="0.3" d="M56.8404 272.007C54.7895 271.992 52.995 273.364 52.4974 275.355C46.8273 297.474 53.2363 310.819 68.8893 310.819C83.5622 310.819 123.6 297.716 136.176 293.645C146.717 324.088 177.118 351.334 177.118 351.334L185.096 344.006C185.096 344.006 167.392 309.884 155.147 279.592C148.12 262.176 80.1842 272.234 80.1842 272.234C80.1842 272.234 66.6876 272.007 56.8253 272.007H56.8404Z" fill="white"/>
<path d="M189.469 347.414C192.817 347.157 197.657 344.594 200.704 341.955C203.026 339.905 205.71 342.257 203.388 345.438C201.066 348.62 196.014 353.128 194.068 355.209C190.902 358.556 190.298 360.2 187.659 362.718C186.981 363.321 185.94 363.261 185.322 362.597L180.074 356.129C179.833 355.842 179.878 355.42 180.15 355.179L187.901 348.077C188.338 347.685 188.896 347.459 189.484 347.414H189.469Z" fill="#263238"/>
<path d="M68.6783 369.759V312.975H59.6453V369.94L36.6182 376.017C32.6521 377.057 29.8774 380.646 29.8774 384.762V386.617C29.8774 388.486 31.4005 390.009 33.2704 390.009C35.1404 390.009 36.6634 388.486 36.6634 386.617C36.6634 384.446 38.1262 382.546 40.2223 381.988L59.6453 376.861V386.617C59.6453 388.486 61.1684 390.009 63.0383 390.009H65.3003C67.1703 390.009 68.6933 388.486 68.6933 386.617V376.71L88.0259 382.063C90.122 382.636 91.5546 384.566 91.5396 386.737C91.5094 388.607 93.0174 390.145 94.8873 390.175C96.7572 390.205 98.2954 388.698 98.3256 386.828L98.3557 384.973C98.4009 380.872 95.6865 377.253 91.7356 376.152L68.7084 369.774L68.6783 369.759Z" fill="#263238"/>
<path d="M27.6758 396.237C27.6758 393.206 30.1338 390.748 33.1649 390.748C36.196 390.748 38.654 393.206 38.654 396.237C38.654 399.267 36.196 401.725 33.1649 401.725C30.1338 401.725 27.6758 399.267 27.6758 396.237Z" fill="#407BFF"/>
<path d="M89.5491 396.237C89.5491 393.206 92.0071 390.748 95.0382 390.748C98.0693 390.748 100.527 393.206 100.527 396.237C100.527 399.267 98.0693 401.725 95.0382 401.725C92.0071 401.725 89.5491 399.267 89.5491 396.237Z" fill="#407BFF"/>
<path d="M58.6047 396.237C58.6047 393.206 61.0628 390.748 64.0939 390.748C67.1249 390.748 69.583 393.206 69.583 396.237C69.583 399.267 67.1249 401.725 64.0939 401.725C61.0628 401.725 58.6047 399.267 58.6047 396.237Z" fill="#407BFF"/>
<path opacity="0.6" d="M68.6782 312.975H59.6453V325.806H68.6782V312.975Z" fill="black"/>
<path opacity="0.6" d="M52.9045 378.64L58.6048 377.133V370.212L52.9045 371.719V378.64Z" fill="black"/>
<path opacity="0.6" d="M75.3135 371.599L69.5981 370.016V376.967L75.3135 378.535V371.599Z" fill="black"/>
<path d="M71.5286 309.16H126.405C129.888 309.16 132.708 311.98 132.708 315.463H71.5286V309.16Z" fill="#407BFF"/>
<path opacity="0.5" d="M71.5286 309.16H126.405C129.888 309.16 132.708 311.98 132.708 315.463H71.5286V309.16Z" fill="black"/>
<path d="M32.5769 228.552C13.2896 228.552 -0.448306 242.937 0.562054 262.071L2.76372 303.928C3.11056 310.381 8.44888 315.448 14.9182 315.448H92.4294L76.4145 262.071C70.669 242.921 51.8642 228.552 32.5769 228.552Z" fill="#407BFF"/>
<path opacity="0.1" d="M32.5769 228.552C13.2896 228.552 -0.448306 242.937 0.562054 262.071L2.76372 303.928C3.11056 310.381 8.44888 315.448 14.9182 315.448H92.4294L76.4145 262.071C70.669 242.921 51.8642 228.552 32.5769 228.552Z" fill="black"/>
<path opacity="0.3" d="M28.6863 228.763C11.48 230.557 -0.372854 244.248 0.577186 262.071L2.77888 303.928C3.12572 310.381 8.46403 315.448 14.9334 315.448H84.6331L68.6181 262.071C63.2647 244.218 46.5561 230.527 28.6863 228.763Z" fill="black"/>
<path d="M101.161 313.653C99.9846 312.477 99.9846 310.562 101.161 309.386L117.583 292.966C118.307 292.242 118.081 291.428 117.945 291.111C117.809 290.795 117.402 290.056 116.377 290.056H81.1798C79.521 290.056 78.1638 288.699 78.1638 287.04C78.1638 285.382 79.521 284.025 81.1798 284.025H116.045C118.97 284.025 121.79 285.502 123.178 288.081C124.821 291.142 124.248 294.821 121.851 297.233L105.428 313.653C104.252 314.829 102.337 314.829 101.161 313.653Z" fill="#263238"/>
<path opacity="0.2" d="M123.178 288.096C121.79 285.517 118.97 284.04 116.045 284.04H81.1798C79.521 284.04 78.1638 285.397 78.1638 287.055C78.1638 288.714 79.521 290.071 81.1798 290.071H116.377C116.693 290.071 116.935 290.146 117.146 290.252H123.947C123.796 289.513 123.555 288.774 123.178 288.081V288.096Z" fill="white"/>
</svg>
