<svg width="802" height="149" viewBox="0 0 802 149" fill="none" xmlns="http://www.w3.org/2000/svg">
<rect width="161.957" height="149" rx="13" fill="#1C50C8"/>
<path d="M51.5995 127.488C48.1585 127.488 45.2287 126.314 42.8101 123.966C40.3916 121.615 39.1823 118.761 39.1823 115.403C39.1823 112.049 40.39 109.193 42.8051 106.835C45.2139 104.478 48.1421 103.299 51.5895 103.299C52.5557 103.299 53.568 103.436 54.6269 103.71C56.4092 104.168 58.4079 103.803 59.5732 102.39L65.5206 95.1766C68.1824 91.9487 67.6417 87.3034 66.4883 83.2941C65.38 79.4477 63.2883 75.4537 59.45 74.2191L53.7971 72.4009C50.1928 71.2417 46.349 73.0221 43.108 74.968C41.1923 76.1162 39.0565 76.6903 36.7008 76.6903C33.2533 76.6903 30.3251 75.5164 27.9164 73.1683C25.5011 70.8171 24.2935 67.9627 24.2935 64.6053C24.2935 61.2509 25.4995 58.395 27.9116 56.0372C30.3201 53.6796 33.245 52.5008 36.6859 52.5008C40.1268 52.5008 43.0567 53.678 45.4753 56.0324C47.8939 58.3805 49.1031 61.2348 49.1031 64.5955C49.1031 65.0051 49.0866 65.3213 49.0536 65.5437C48.995 65.9433 49.2627 66.3042 49.6479 66.4351L60.6858 70.1858C64.5829 71.5098 68.8164 69.6321 72.0913 67.1549C75.6439 64.4632 79.1684 60.9603 79.1684 56.5277V53.8119C79.1684 48.7288 74.866 44.7252 71.6894 40.735C69.8663 38.4451 68.9548 35.9036 68.9548 33.1104C68.9548 29.7884 70.1607 26.9485 72.5728 24.5909C74.9848 22.2332 77.9128 21.0543 81.3571 21.0543C84.798 21.0543 87.7279 22.2317 90.1465 24.5861C92.5651 26.9341 93.7743 29.7884 93.7743 33.1492C93.7743 35.9164 92.8578 38.4451 91.0249 40.735C87.8423 44.7109 83.5607 48.7211 83.5607 53.7967V56.5618C83.5607 60.9719 87.0782 64.4468 90.5931 67.1499C93.8762 69.675 98.1327 71.5095 102.063 70.1735L113.03 66.446C113.424 66.3123 113.626 65.9078 113.626 65.4954V64.5955C113.626 61.2348 114.832 58.3805 117.244 56.0324C119.653 53.678 122.579 52.5008 126.023 52.5008C129.464 52.5008 132.394 53.6765 134.813 56.0276C137.231 58.3757 138.441 61.2284 138.441 64.5859C138.441 67.9401 137.233 70.7961 134.818 73.1538C132.412 75.5114 129.484 76.6903 126.033 76.6903C123.697 76.6903 121.563 76.1162 119.631 74.968C116.382 73.0405 112.532 71.2448 108.93 72.4032L103.275 74.2221C99.4419 75.4549 97.3555 79.444 96.2459 83.2845C95.1 87.245 94.5444 91.8474 97.1783 95.0347L103.183 102.301C104.35 103.712 106.321 104.138 108.107 103.696C109.166 103.431 110.177 103.299 111.14 103.299C114.587 103.299 117.519 104.474 119.934 106.826C122.346 109.174 123.552 112.026 123.552 115.384C123.552 118.738 122.348 121.594 119.939 123.952C117.527 126.309 114.599 127.488 111.154 127.488C107.714 127.488 104.784 126.311 102.365 123.957C99.9467 121.609 98.7373 118.754 98.7373 115.394C98.7373 113.955 98.9739 112.57 99.4469 111.238C100.303 108.851 100.61 106.051 99.005 104.08L94.3588 98.378C91.4228 94.7745 86.0743 94.1793 81.4018 94.1793C76.6633 94.1793 71.2684 94.7971 68.2952 98.4548L63.704 104.103C62.1011 106.075 62.3349 108.869 63.2375 111.238C63.7437 112.57 63.9969 113.955 63.9969 115.394C63.9969 118.754 62.7925 121.609 60.3839 123.957C57.9719 126.311 55.0437 127.488 51.5995 127.488ZM36.7008 71.8523C38.7423 71.8523 40.4941 71.1413 41.9566 69.7189C43.4157 68.2933 44.1452 66.5855 44.1452 64.5955C44.1452 62.6056 43.4157 60.8978 41.9566 59.4722C40.4941 58.0499 38.7423 57.3387 36.7008 57.3387C34.6594 57.3387 32.9075 58.0499 31.4451 59.4722C29.986 60.8978 29.2564 62.6056 29.2564 64.5955C29.2564 66.5855 29.986 68.2933 31.4451 69.7189C32.9075 71.1413 34.6594 71.8523 36.7008 71.8523ZM51.5895 122.651C53.631 122.651 55.383 121.939 56.8453 120.517C58.3044 119.091 59.0339 117.384 59.0339 115.394C59.0339 113.404 58.3044 111.696 56.8453 110.27C55.383 108.848 53.631 108.137 51.5895 108.137C49.5482 108.137 47.7962 108.848 46.3339 110.27C44.8748 111.696 44.1452 113.404 44.1452 115.394C44.1452 117.384 44.8748 119.091 46.3339 120.517C47.7962 121.939 49.5482 122.651 51.5895 122.651ZM81.3671 40.406C83.4085 40.406 85.1604 39.6948 86.6228 38.2725C88.0819 36.847 88.8115 35.1392 88.8115 33.1492C88.8115 31.1591 88.0819 29.4514 86.6228 28.0258C85.1604 26.6036 83.4085 25.8923 81.3671 25.8923C79.3256 25.8923 77.5737 26.6036 76.1113 28.0258C74.6522 29.4514 73.9226 31.1591 73.9226 33.1492C73.9226 35.1392 74.6522 36.847 76.1113 38.2725C77.5737 39.6948 79.3256 40.406 81.3671 40.406ZM81.3671 89.3415C84.2688 89.3415 86.7436 88.3432 88.7917 86.3468C90.8396 84.3504 91.8653 81.9378 91.8686 79.1093C91.8686 76.2807 90.8429 73.8683 88.7917 71.8717C86.7403 69.8753 84.2655 68.8755 81.3671 68.8722C78.4654 68.8722 75.9905 69.8721 73.9425 71.8717C71.8946 73.8715 70.8688 76.284 70.8655 79.1093C70.8655 81.9378 71.8913 84.3504 73.9425 86.3468C75.9938 88.3432 78.4687 89.343 81.3671 89.3463M111.145 122.651C113.186 122.651 114.938 121.939 116.4 120.517C117.859 119.091 118.589 117.384 118.589 115.394C118.589 113.404 117.859 111.696 116.4 110.27C114.938 108.848 113.186 108.137 111.145 108.137C109.103 108.137 107.351 108.848 105.889 110.27C104.43 111.696 103.7 113.404 103.7 115.394C103.7 117.384 104.43 119.091 105.889 120.517C107.351 121.939 109.103 122.651 111.145 122.651ZM126.033 71.8523C128.075 71.8523 129.827 71.1413 131.289 69.7189C132.748 68.2933 133.478 66.5855 133.478 64.5955C133.478 62.6056 132.748 60.8978 131.289 59.4722C129.827 58.0499 128.075 57.3387 126.033 57.3387C123.992 57.3387 122.24 58.0499 120.778 59.4722C119.318 60.8978 118.589 62.6056 118.589 64.5955C118.589 66.5855 119.318 68.2933 120.778 69.7189C122.24 71.1413 123.992 71.8523 126.033 71.8523Z" fill="white"/>
<path d="M59.9644 114.94C59.9644 119.421 56.238 123.054 51.6412 123.054C47.0444 123.054 43.318 119.421 43.318 114.94C43.318 110.459 47.0444 106.826 51.6412 106.826C56.238 106.826 59.9644 110.459 59.9644 114.94Z" fill="white"/>
<path d="M59.9644 114.94C59.9644 119.421 56.238 123.054 51.6412 123.054C47.0444 123.054 43.318 119.421 43.318 114.94C43.318 110.459 47.0444 106.826 51.6412 106.826C56.238 106.826 59.9644 110.459 59.9644 114.94Z" stroke="#1C50C8"/>
<path d="M119.416 114.94C119.416 119.421 115.69 123.054 111.093 123.054C106.496 123.054 102.77 119.421 102.77 114.94C102.77 110.459 106.496 106.826 111.093 106.826C115.69 106.826 119.416 110.459 119.416 114.94Z" fill="white"/>
<path d="M119.416 114.94C119.416 119.421 115.69 123.054 111.093 123.054C106.496 123.054 102.77 119.421 102.77 114.94C102.77 110.459 106.496 106.826 111.093 106.826C115.69 106.826 119.416 110.459 119.416 114.94Z" stroke="#1C50C8"/>
<path d="M133.685 63.9404C133.685 68.4214 129.958 72.054 125.361 72.054C120.764 72.054 117.038 68.4214 117.038 63.9404C117.038 59.4595 120.764 55.8269 125.361 55.8269C129.958 55.8269 133.685 59.4595 133.685 63.9404Z" fill="white"/>
<path d="M133.685 63.9404C133.685 68.4214 129.958 72.054 125.361 72.054C120.764 72.054 117.038 68.4214 117.038 63.9404C117.038 59.4595 120.764 55.8269 125.361 55.8269C129.958 55.8269 133.685 59.4595 133.685 63.9404Z" stroke="#1C50C8"/>
<path d="M44.7467 63.8611C44.7467 68.1022 41.2125 71.5845 36.7971 71.5845C32.3818 71.5845 28.8477 68.1022 28.8477 63.8611C28.8477 59.62 32.3818 56.1376 36.7971 56.1376C41.2125 56.1376 44.7467 59.62 44.7467 63.8611Z" fill="white" stroke="#1C50C8" stroke-width="2"/>
<path d="M59.7032 116.349C59.7032 120.59 56.169 124.072 51.7538 124.072C47.3384 124.072 43.8042 120.59 43.8042 116.349C43.8042 112.108 47.3384 108.626 51.7538 108.626C56.169 108.626 59.7032 112.108 59.7032 116.349Z" fill="white" stroke="#1C50C8" stroke-width="2"/>
<path d="M119.53 114.891C119.53 119.132 115.996 122.615 111.581 122.615C107.165 122.615 103.631 119.132 103.631 114.891C103.631 110.65 107.165 107.168 111.581 107.168C115.996 107.168 119.53 110.65 119.53 114.891Z" fill="white" stroke="#1C50C8" stroke-width="2"/>
<path d="M89.6168 33.2431C89.6168 37.4842 86.0825 40.9666 81.6672 40.9666C77.2518 40.9666 73.7177 37.4842 73.7177 33.2431C73.7177 29.0019 77.2518 25.5196 81.6672 25.5196C86.0825 25.5196 89.6168 29.0019 89.6168 33.2431Z" fill="white" stroke="#1C50C8" stroke-width="2"/>
<path d="M132.991 63.8611C132.991 68.1022 129.457 71.5845 125.042 71.5845C120.627 71.5845 117.092 68.1022 117.092 63.8611C117.092 59.62 120.627 56.1376 125.042 56.1376C129.457 56.1376 132.991 59.62 132.991 63.8611Z" fill="white" stroke="#1C50C8" stroke-width="2"/>
<path d="M82.6248 91.0384C89.2331 91.0384 94.5902 85.8163 94.5902 79.3744C94.5902 72.9326 89.2331 67.7104 82.6248 67.7104C76.0165 67.7104 70.6594 72.9326 70.6594 79.3744C70.6594 85.8163 76.0165 91.0384 82.6248 91.0384Z" fill="white"/>
<path d="M265.891 124V43.616H291.747C300.579 43.616 307.32 45.856 311.971 50.336C316.664 54.7733 319.011 60.8107 319.011 68.448C319.011 76 316.664 81.9947 311.971 86.432C307.32 90.8267 300.579 93.024 291.747 93.024H276.003V124H265.891ZM276.003 84.32H291.747C297.336 84.32 301.56 82.8907 304.419 80.032C307.32 77.1733 308.771 73.312 308.771 68.448C308.771 63.4987 307.32 59.552 304.419 56.608C301.56 53.664 297.336 52.192 291.747 52.192H276.003V84.32ZM343.422 124V62.688H353.406V124H343.422ZM350.334 96.352C350.334 88.5867 351.08 82.144 352.574 77.024C354.067 71.8613 356.243 68.0213 359.102 65.504C362.003 62.944 365.523 61.664 369.662 61.664C371.027 61.664 372.264 61.7707 373.374 61.984C374.526 62.1547 375.678 62.432 376.83 62.816L376.19 72.672C374.995 72.288 373.694 71.968 372.286 71.712C370.878 71.4133 369.619 71.264 368.51 71.264C364.883 71.264 361.96 72.3093 359.742 74.4C357.523 76.448 355.902 79.3493 354.878 83.104C353.896 86.8587 353.406 91.2747 353.406 96.352H350.334ZM418.216 125.536C412.712 125.536 407.805 124.32 403.496 121.888C399.229 119.456 395.858 115.851 393.384 111.072C390.909 106.293 389.672 100.405 389.672 93.408C389.672 86.368 390.909 80.48 393.384 75.744C395.858 70.9653 399.229 67.36 403.496 64.928C407.805 62.496 412.712 61.28 418.216 61.28C423.677 61.28 428.541 62.496 432.808 64.928C437.117 67.36 440.488 70.9653 442.92 75.744C445.394 80.48 446.632 86.368 446.632 93.408C446.632 100.405 445.394 106.293 442.92 111.072C440.488 115.851 437.117 119.456 432.808 121.888C428.541 124.32 423.677 125.536 418.216 125.536ZM417.96 116.832C421.928 116.832 425.298 115.893 428.072 114.016C430.845 112.096 432.936 109.387 434.344 105.888C435.794 102.389 436.52 98.2293 436.52 93.408C436.52 86.112 435.005 80.3733 431.976 76.192C428.946 71.968 424.445 69.856 418.472 69.856C414.461 69.856 411.069 70.816 408.296 72.736C405.565 74.6133 403.474 77.3227 402.024 80.864C400.616 84.3627 399.912 88.544 399.912 93.408C399.912 100.619 401.426 106.336 404.456 110.56C407.528 114.741 412.029 116.832 417.96 116.832Z" fill="black"/>
<path d="M472.216 124V43.616H498.072C506.904 43.616 513.645 45.856 518.296 50.336C522.989 54.7733 525.336 60.8107 525.336 68.448C525.336 76 522.989 81.9947 518.296 86.432C513.645 90.8267 506.904 93.024 498.072 93.024H482.328V124H472.216ZM482.328 84.32H498.072C503.661 84.32 507.885 82.8907 510.744 80.032C513.645 77.1733 515.096 73.312 515.096 68.448C515.096 63.4987 513.645 59.552 510.744 56.608C507.885 53.664 503.661 52.192 498.072 52.192H482.328V84.32ZM555.379 48.352C553.331 48.352 551.709 47.776 550.515 46.624C549.32 45.4293 548.723 43.872 548.723 41.952C548.723 40.0747 549.32 38.5813 550.515 37.472C551.709 36.3627 553.331 35.808 555.379 35.808C557.427 35.808 559.048 36.3627 560.243 37.472C561.437 38.5813 562.035 40.0747 562.035 41.952C562.035 43.872 561.437 45.4293 560.243 46.624C559.048 47.776 557.427 48.352 555.379 48.352ZM550.387 124V62.688H560.371V124H550.387ZM613.088 125.536C609.76 125.536 606.773 124.896 604.128 123.616C601.482 122.336 599.392 120.416 597.856 117.856C596.32 115.296 595.552 112.096 595.552 108.256V45.792H605.408V108C605.408 114.315 608.352 117.472 614.24 117.472C615.989 117.472 617.674 117.28 619.296 116.896C620.96 116.512 622.816 115.936 624.864 115.168L626.272 122.336C624.096 123.275 621.92 124.043 619.744 124.64C617.61 125.237 615.392 125.536 613.088 125.536ZM585.696 69.728V62.816H624.736V69.728H585.696ZM670.301 125.536C665.394 125.536 660.807 124.213 656.541 121.568C652.317 118.923 648.903 115.189 646.301 110.368C643.698 105.547 642.397 99.8507 642.397 93.28C642.397 86.5387 643.698 80.7787 646.301 76C648.903 71.2213 652.317 67.5733 656.541 65.056C660.807 62.5387 665.394 61.28 670.301 61.28C673.757 61.28 676.85 61.8133 679.581 62.88C682.354 63.904 684.765 65.3333 686.813 67.168C688.861 69.0027 690.546 71.0933 691.869 73.44C693.234 75.744 694.237 78.176 694.877 80.736L684.637 81.632C683.57 78.0907 681.778 75.296 679.261 73.248C676.786 71.1573 673.757 70.112 670.173 70.112C667.143 70.112 664.285 70.9867 661.597 72.736C658.951 74.4427 656.797 77.024 655.133 80.48C653.469 83.8933 652.637 88.16 652.637 93.28C652.637 98.016 653.383 102.133 654.877 105.632C656.413 109.088 658.503 111.776 661.149 113.696C663.794 115.616 666.802 116.576 670.173 116.576C674.909 116.576 678.493 115.424 680.925 113.12C683.399 110.773 684.637 107.531 684.637 103.392H694.877C694.877 107.659 693.874 111.456 691.869 114.784C689.863 118.112 687.005 120.736 683.293 122.656C679.623 124.576 675.293 125.536 670.301 125.536ZM764.717 124V88.032C764.717 82.1867 763.309 77.7493 760.493 74.72C757.719 71.648 753.922 70.112 749.101 70.112C745.431 70.112 742.253 71.1147 739.565 73.12C736.877 75.1253 734.807 78.0053 733.357 81.76C731.906 85.472 731.181 89.9093 731.181 95.072H727.341C727.341 87.9467 728.279 81.8667 730.157 76.832C732.034 71.7973 734.765 67.9573 738.349 65.312C741.975 62.624 746.37 61.28 751.533 61.28C756.354 61.28 760.471 62.368 763.885 64.544C767.341 66.6773 769.986 69.7493 771.821 73.76C773.655 77.7707 774.573 82.528 774.573 88.032V124H764.717ZM721.197 124V36.704H731.181V124H721.197Z" fill="#1C50C8"/>
</svg>
